<svg width="1441" height="866" viewBox="0 0 1441 866" fill="none" xmlns="http://www.w3.org/2000/svg">
<rect width="1440" height="866" transform="translate(0.915527)" fill="#121632"/>
<rect width="12.8391" height="34.0596" rx="6.41955" transform="matrix(-1 0 0 1 96.5654 229)" fill="#DD226D"/>
<rect width="13.1018" height="34.0596" rx="6.5509" transform="matrix(-0.5 -0.866025 -0.866025 0.5 117.733 248.494)" fill="#DD226D"/>
<rect width="12.8391" height="34.0596" rx="6.41955" transform="matrix(4.37114e-08 1 1 -4.37114e-08 471.798 756.056)" fill="#DD226D"/>
<rect width="13.1018" height="34.0596" rx="6.5509" transform="matrix(-0.866025 0.5 0.5 0.866025 491.292 734.888)" fill="#DD226D"/>
<rect width="31.6747" height="84.0269" rx="15.8374" transform="matrix(4.37114e-08 1 1 -4.37114e-08 755.81 167.358)" fill="#DD226D"/>
<rect width="32.3228" height="84.0269" rx="16.1614" transform="matrix(-0.866025 0.5 0.5 0.866025 803.902 115.135)" fill="#DD226D"/>
<rect x="1246.78" y="789.62" width="31.6747" height="84.0269" rx="15.8374" transform="rotate(-90 1246.78 789.62)" fill="#DD226D"/>
<rect x="1294.87" y="841.843" width="32.3228" height="84.0269" rx="16.1614" transform="rotate(-150 1294.87 841.843)" fill="#DD226D"/>
</svg>
